<svg xmlns="http://www.w3.org/2000/svg" width="152.024" height="25.58" viewBox="0 0 152.024 25.58">
  <g id="logo" transform="translate(0 -0.426)">
    <path id="Path_2" data-name="Path 2" d="M20.137,26a4.35,4.35,0,0,0,4.536-4.971,26.67,26.67,0,0,0-1.45-4.979,26.078,26.078,0,0,0-5.449-8.435A25.1,25.1,0,0,0,9.619,1.979,24.523,24.523,0,0,0,4.965.512C2.262-.051,0,2.239,0,5V21a5,5,0,0,0,5,5Z" fill="#1d1d1d"/>
    <g id="Group_1" data-name="Group 1">
      <path id="Path_3" data-name="Path 3" d="M13.7,26a4.35,4.35,0,0,1-4.536-4.971,26.672,26.672,0,0,1,1.45-4.979,26.078,26.078,0,0,1,5.449-8.435,25.1,25.1,0,0,1,8.155-5.636A24.524,24.524,0,0,1,28.873.512c2.7-.563,4.965,1.726,4.965,4.488V21a5,5,0,0,1-5,5Z" fill="#5a64dc"/>
    </g>
    <path id="Dashboard" d="M7.44.168a7.957,7.957,0,0,1-3.156-.6A5.182,5.182,0,0,1,2.064-2.16a4.55,4.55,0,0,1-.84-2.664h3.6a2.328,2.328,0,0,0,.732,1.632,2.593,2.593,0,0,0,1.812.6,2.787,2.787,0,0,0,1.848-.564,1.834,1.834,0,0,0,.672-1.476,1.705,1.705,0,0,0-.456-1.224,3.2,3.2,0,0,0-1.14-.756,18.866,18.866,0,0,0-1.884-.612,20.177,20.177,0,0,1-2.652-.948A4.645,4.645,0,0,1,2-9.588a4.035,4.035,0,0,1-.732-2.532,4.527,4.527,0,0,1,.744-2.592A4.732,4.732,0,0,1,4.1-16.4a7.6,7.6,0,0,1,3.072-.588,6.665,6.665,0,0,1,4.212,1.26,4.671,4.671,0,0,1,1.788,3.516H9.48a1.92,1.92,0,0,0-.732-1.428,2.758,2.758,0,0,0-1.812-.564,2.333,2.333,0,0,0-1.572.5,1.822,1.822,0,0,0-.588,1.464,1.513,1.513,0,0,0,.444,1.116,3.386,3.386,0,0,0,1.1.72q.66.276,1.86.636a19.54,19.54,0,0,1,2.664.96,4.784,4.784,0,0,1,1.776,1.44,4,4,0,0,1,.744,2.52,4.74,4.74,0,0,1-.7,2.5,4.913,4.913,0,0,1-2.04,1.836A6.958,6.958,0,0,1,7.44.168Zm12.744-10.7V-4.1a1.271,1.271,0,0,0,.324.972,1.592,1.592,0,0,0,1.092.3h1.56V0H21.048Q16.8,0,16.8-4.128v-6.408H15.216V-13.3H16.8v-3.288h3.384V-13.3H23.16v2.76ZM38.136-13.3V0H34.752V-1.68A4.436,4.436,0,0,1,33.06-.324a5.253,5.253,0,0,1-2.268.492,5.633,5.633,0,0,1-2.76-.66,4.652,4.652,0,0,1-1.884-1.944,6.424,6.424,0,0,1-.684-3.06v-7.8h3.36v7.32a3.448,3.448,0,0,0,.792,2.436,2.805,2.805,0,0,0,2.16.852A2.835,2.835,0,0,0,33.96-3.54a3.448,3.448,0,0,0,.792-2.436V-13.3Zm2.448,6.6a7.7,7.7,0,0,1,.8-3.576,5.865,5.865,0,0,1,2.2-2.4,5.877,5.877,0,0,1,3.1-.84,5.647,5.647,0,0,1,2.472.564,4.943,4.943,0,0,1,1.872,1.5V-17.76h3.408V0H51.024V-1.968A4.553,4.553,0,0,1,49.272-.384a5.488,5.488,0,0,1-2.616.6,5.711,5.711,0,0,1-3.072-.864,6.017,6.017,0,0,1-2.2-2.436A7.823,7.823,0,0,1,40.584-6.7Zm10.464.048a4.31,4.31,0,0,0-.48-2.1,3.384,3.384,0,0,0-1.3-1.344,3.464,3.464,0,0,0-1.752-.468,3.4,3.4,0,0,0-1.728.456,3.434,3.434,0,0,0-1.284,1.332A4.173,4.173,0,0,0,44.016-6.7a4.31,4.31,0,0,0,.492,2.1,3.542,3.542,0,0,0,1.3,1.38,3.292,3.292,0,0,0,1.716.48A3.464,3.464,0,0,0,49.272-3.2a3.384,3.384,0,0,0,1.3-1.344A4.31,4.31,0,0,0,51.048-6.648ZM70.08-6.936a7.929,7.929,0,0,1-.1,1.3h-9.72a3.306,3.306,0,0,0,1.008,2.256,3.108,3.108,0,0,0,2.184.816A2.744,2.744,0,0,0,66.12-4.176h3.624A6.056,6.056,0,0,1,67.536-1.02,6.446,6.446,0,0,1,63.528.216a6.936,6.936,0,0,1-3.444-.852,6,6,0,0,1-2.376-2.412,7.39,7.39,0,0,1-.852-3.6,7.528,7.528,0,0,1,.84-3.624,5.861,5.861,0,0,1,2.352-2.4,7.046,7.046,0,0,1,3.48-.84,6.99,6.99,0,0,1,3.4.816,5.743,5.743,0,0,1,2.328,2.316A7.009,7.009,0,0,1,70.08-6.936ZM66.6-7.9a2.665,2.665,0,0,0-.936-2.076,3.316,3.316,0,0,0-2.232-.78,3.05,3.05,0,0,0-2.1.756,3.324,3.324,0,0,0-1.044,2.1Zm13.3-5.592a5.125,5.125,0,0,1,3.84,1.5A5.743,5.743,0,0,1,85.2-7.8V0H81.84V-7.344a3.448,3.448,0,0,0-.792-2.436,2.805,2.805,0,0,0-2.16-.852,2.874,2.874,0,0,0-2.2.852,3.415,3.415,0,0,0-.8,2.436V0h-3.36V-13.3h3.36v1.656A4.642,4.642,0,0,1,77.6-13,5.308,5.308,0,0,1,79.9-13.488ZM92.3-10.536V-4.1a1.271,1.271,0,0,0,.324.972,1.592,1.592,0,0,0,1.092.3h1.56V0H93.168Q88.92,0,88.92-4.128v-6.408H87.336V-13.3H88.92v-3.288H92.3V-13.3H95.28v2.76ZM102.792.216a7.011,7.011,0,0,1-2.928-.588,5.174,5.174,0,0,1-2.052-1.6A4.045,4.045,0,0,1,96.984-4.2h3.384a1.843,1.843,0,0,0,.756,1.272,2.63,2.63,0,0,0,1.644.5,2.553,2.553,0,0,0,1.5-.384,1.162,1.162,0,0,0,.54-.984,1.038,1.038,0,0,0-.66-.972,12.419,12.419,0,0,0-2.1-.708,17.8,17.8,0,0,1-2.436-.744A4.229,4.229,0,0,1,97.98-7.392,3.156,3.156,0,0,1,97.3-9.528a3.447,3.447,0,0,1,.636-2.016,4.27,4.27,0,0,1,1.824-1.44,6.838,6.838,0,0,1,2.8-.528,5.709,5.709,0,0,1,3.792,1.188,4.4,4.4,0,0,1,1.56,3.2h-3.216a1.741,1.741,0,0,0-.66-1.26,2.453,2.453,0,0,0-1.572-.468,2.477,2.477,0,0,0-1.4.336,1.071,1.071,0,0,0-.492.936,1.1,1.1,0,0,0,.672,1.02,10.436,10.436,0,0,0,2.088.708A17.724,17.724,0,0,1,105.7-7.1a4.2,4.2,0,0,1,1.62,1.188,3.262,3.262,0,0,1,.708,2.124,3.522,3.522,0,0,1-.636,2.064A4.189,4.189,0,0,1,105.564-.3,6.911,6.911,0,0,1,102.792.216Z" transform="translate(44 22.426)" fill="#11142d"/>
  </g>
</svg>
